M48
METRIC,LZ,000.000
;FILE_FORMAT=3:3
;TYPE=PLATED
;Layer: PTH_Through
;EasyEDA v6.5.57, 2026-07-02 20:20:03
;b717ba04552f48d2861de6b363a78323,f4c6078d832640438f7d6b27728cf1cc,10
;Gerber Generator version 0.2
;Holesize 1 = 0.310 mm
T01C0.310
;Holesize 2 = 0.889 mm
T02C0.889
;Holesize 3 = 0.915 mm
T03C0.915
;Holesize 4 = 1.016 mm
T04C1.016
;Holesize 5 = 1.101 mm
T05C1.101
%
G05
G90
T01
X024257Y044323
X026797Y044323
X029337Y044323
T02
X031877Y102743
X034417Y102743
X036957Y102743
X039497Y102743
X031886Y097425
X039506Y097391
X011557Y105445
X003656Y105445
T03
X003937Y049530
X006477Y049530
X009017Y049530
X011557Y049530
X014097Y049530
X016637Y049530
X019177Y049530
X021717Y049530
X024257Y049530
X026797Y049530
X029337Y049530
X031877Y049530
X034417Y049530
X036957Y049530
X039497Y049530
X003937Y064770
X006477Y064770
X009017Y064770
X011557Y064770
X014097Y064770
X016637Y064770
X019177Y064770
X021717Y064770
X024257Y064770
X026797Y064770
X029337Y064770
X031877Y064770
X034417Y064770
X036957Y064770
X039497Y064770
X031750Y041910
X029210Y041910
X026670Y041910
X024130Y041910
X021590Y041910
X019050Y041910
X016510Y041910
X013970Y041910
X003937Y074930
X003937Y080010
X009017Y080010
X009017Y074930
T04
X011430Y110363
X008890Y110363
X006350Y110363
X003810Y110363
T05
X016510Y087589
X016510Y090129
X016520Y082550
X016520Y085090
X016561Y077450
X016518Y079974
X016538Y074938
X016510Y072349
M30
