G04 Layer: BottomLayer*
G04 EasyEDA v6.5.57, 2026-07-02 20:20:03*
G04 b717ba04552f48d2861de6b363a78323,f4c6078d832640438f7d6b27728cf1cc,10*
G04 Gerber Generator version 0.2*
G04 Scale: 100 percent, Rotated: No, Reflected: No *
G04 Dimensions in millimeters *
G04 leading zeros omitted , absolute positions ,4 integer and 5 decimal *
%FSLAX45Y45*%
%MOMM*%

%AMMACRO1*21,1,$1,$2,0,0,$3*%
%ADD10C,1.0000*%
%ADD11C,1.8796*%
%ADD12MACRO1,1.5748X1.5748X0.0000*%
%ADD13R,1.7780X1.7780*%
%ADD14C,1.7780*%
%ADD15C,1.5240*%
%ADD16C,2.0000*%
%ADD17C,0.6200*%
%ADD18C,0.0187*%

%LPD*%
D10*
X901700Y8001000D02*
G01*
X901700Y7493000D01*
X393700Y7493000D02*
G01*
X393700Y8001000D01*
X901700Y6477000D02*
G01*
X901700Y7493000D01*
X647700Y6477000D02*
G01*
X647700Y7239000D01*
X393700Y7493000D01*
X1651000Y8758936D02*
G01*
X3187700Y8750300D01*
X3188461Y9742424D01*
X1651000Y9012936D02*
G01*
X1155700Y9012936D01*
X1371600Y7099300D02*
G01*
X1917700Y6477000D01*
X2921000Y4432300D02*
G01*
X2921000Y4940300D01*
X2933700Y4953000D01*
X1676400Y8267700D02*
G01*
X2171700Y7772400D01*
X2171700Y6477000D01*
X3175000Y4191000D02*
G01*
X2933700Y4432300D01*
X2413000Y4191000D02*
G01*
X2413000Y3924300D01*
X3695700Y3924300D01*
X3695700Y4953000D01*
X1143000Y11036300D02*
G01*
X1155700Y11023600D01*
X1155700Y6477000D01*
X1905000Y4191000D02*
G01*
X1892300Y4178300D01*
X1892300Y3657600D01*
X4203700Y3657600D01*
X4216400Y3670300D01*
X4216400Y5981700D01*
X1143000Y5981700D01*
X1155700Y5994400D01*
X1155700Y6477000D01*
X2159000Y4191000D02*
G01*
X2159000Y4673600D01*
X1409700Y4673600D01*
X1409700Y4953000D01*
X381000Y11036300D02*
G01*
X381000Y9499600D01*
X139700Y9499600D01*
X139700Y6210300D01*
X647700Y6210300D01*
X647700Y6477000D01*
X1397000Y4191000D02*
G01*
X152400Y4178300D01*
X139700Y6233921D01*
X1371600Y8509000D02*
G01*
X1371600Y7099300D01*
X1652015Y8509000D02*
G01*
X1371600Y8509000D01*
X2667000Y4432300D02*
G01*
X2667000Y4940300D01*
X2679700Y4953000D01*
X2921000Y4191000D02*
G01*
X2679700Y4432300D01*
X2667000Y4191000D02*
G01*
X2425700Y4432300D01*
X2425700Y4953000D02*
G01*
X2425700Y4432300D01*
X2667000Y4191000D01*
G36*
X1041400Y11176000D02*
G01*
X1270000Y11176000D01*
X1270000Y10160000D01*
X1041400Y10160000D01*
G37*
G36*
X254000Y11176000D02*
G01*
X482600Y11176000D01*
X482600Y10160000D01*
X254000Y10160000D01*
G37*
G36*
X3098800Y10363200D02*
G01*
X3276600Y10363200D01*
X3276600Y9652000D01*
X3098800Y9652000D01*
G37*
G36*
X3860800Y10363200D02*
G01*
X4038600Y10363200D01*
X4038600Y9652000D01*
X3860800Y9652000D01*
G37*
D11*
G01*
X1143000Y11036300D03*
G01*
X889000Y11036300D03*
G01*
X635000Y11036300D03*
G01*
X381000Y11036300D03*
D12*
G01*
X3187700Y10274300D03*
G01*
X3441700Y10274300D03*
G01*
X3695700Y10274300D03*
G01*
X3949700Y10274300D03*
D13*
G01*
X393700Y4953000D03*
D14*
G01*
X647700Y4953000D03*
G01*
X901700Y4953000D03*
G01*
X1155700Y4953000D03*
G01*
X1409700Y4953000D03*
G01*
X1663700Y4953000D03*
G01*
X1917700Y4953000D03*
G01*
X2171700Y4953000D03*
G01*
X2425700Y4953000D03*
G01*
X2679700Y4953000D03*
G01*
X2933700Y4953000D03*
G01*
X3187700Y4953000D03*
G01*
X3441700Y4953000D03*
G01*
X3695700Y4953000D03*
G01*
X3949700Y4953000D03*
G01*
X393700Y6477000D03*
G01*
X647700Y6477000D03*
G01*
X901700Y6477000D03*
G01*
X1155700Y6477000D03*
G01*
X1409700Y6477000D03*
G01*
X1663700Y6477000D03*
G01*
X1917700Y6477000D03*
G01*
X2171700Y6477000D03*
G01*
X2425700Y6477000D03*
G01*
X2679700Y6477000D03*
G01*
X2933700Y6477000D03*
G01*
X3187700Y6477000D03*
G01*
X3441700Y6477000D03*
G01*
X3695700Y6477000D03*
G01*
X3949700Y6477000D03*
D15*
G01*
X3175000Y4191000D03*
G01*
X2921000Y4191000D03*
G01*
X2667000Y4191000D03*
G01*
X2413000Y4191000D03*
G01*
X2159000Y4191000D03*
G01*
X1905000Y4191000D03*
G01*
X1651000Y4191000D03*
G01*
X1397000Y4191000D03*
D16*
G01*
X1651000Y8758936D03*
G01*
X1651000Y9012936D03*
G01*
X1652015Y8255000D03*
G01*
X1652015Y8509000D03*
G01*
X1656079Y7744968D03*
G01*
X1651762Y7997444D03*
G01*
X1653794Y7493762D03*
G01*
X1651000Y7234936D03*
D12*
G01*
X3188550Y9742482D03*
G01*
X3950550Y9739094D03*
G01*
X1155700Y10544456D03*
G01*
X365648Y10544456D03*
D15*
G01*
X393700Y7493000D03*
G01*
X393700Y8001000D03*
G01*
X901700Y8001000D03*
G01*
X901700Y7493000D03*
D17*
G01*
X2425700Y4432300D03*
G01*
X2679700Y4432300D03*
G01*
X2933700Y4432300D03*
M02*
